<?xml version="1.0" standalone="no"?>
<!DOCTYPE svg PUBLIC "-//W3C//DTD SVG 20010904//EN"
 "http://www.w3.org/TR/2001/REC-SVG-20010904/DTD/svg10.dtd">
<svg version="1.0" xmlns="http://www.w3.org/2000/svg"
 width="512.000000pt" height="512.000000pt" viewBox="0 0 512.000000 512.000000"
 preserveAspectRatio="xMidYMid meet">

<g transform="translate(0.000000,512.000000) scale(0.100000,-0.100000)"
fill="#000000" stroke="none">
<path d="M2460 4991 c-176 -33 -330 -140 -422 -292 -142 -234 -104 -540 91
-738 54 -55 88 -79 162 -114 187 -91 351 -91 538 0 374 180 454 675 159 972
-107 107 -245 168 -397 176 -47 2 -106 0 -131 -4z"/>
<path d="M510 3163 c-219 -37 -414 -210 -483 -428 -31 -98 -31 -252 0 -350 62
-196 208 -341 413 -411 53 -18 128 -19 2120 -19 1992 0 2067 1 2120 19 205 70
351 215 413 411 31 98 31 252 0 350 -61 192 -196 330 -400 408 l-58 22 -2050
1 c-1127 1 -2061 0 -2075 -3z"/>
<path d="M2435 1328 c-27 -5 -92 -29 -144 -54 -317 -154 -435 -552 -253 -853
76 -126 190 -218 334 -268 62 -22 90 -26 188 -26 98 0 126 4 188 26 144 50
258 142 334 268 142 234 104 540 -91 738 -54 55 -88 79 -162 114 -132 64 -255
81 -394 55z"/>
</g>
</svg>
