<?xml version="1.0" standalone="no"?>
<!DOCTYPE svg PUBLIC "-//W3C//DTD SVG 20010904//EN"
 "http://www.w3.org/TR/2001/REC-SVG-20010904/DTD/svg10.dtd">
<svg version="1.0" xmlns="http://www.w3.org/2000/svg"
 width="512.000000pt" height="512.000000pt" viewBox="0 0 512.000000 512.000000"
 preserveAspectRatio="xMidYMid meet">

<g transform="translate(0.000000,512.000000) scale(0.100000,-0.100000)"
fill="#000000" stroke="none">
<path d="M1280 4160 l0 -320 -320 0 -320 0 0 -215 0 -215 320 0 320 0 0 -320
0 -320 213 2 212 3 3 317 2 318 318 2 317 3 3 213 2 212 -320 0 -320 0 0 320
0 320 -215 0 -215 0 0 -320z"/>
<path d="M2412 2717 c-936 -936 -1702 -1707 -1702 -1712 0 -13 282 -295 295
-295 6 0 776 766 1713 1703 l1702 1702 -153 153 -152 152 -1703 -1703z"/>
<path d="M2777 1703 c-4 -3 -7 -100 -7 -215 l0 -208 855 0 855 0 0 215 0 215
-848 0 c-467 0 -852 -3 -855 -7z"/>
</g>
</svg>
